HIERARCHY
ROOT Hips
{
	OFFSET 68.796799 -2.606816 96.864403
	CHANNELS 6 Xposition Yposition Zposition Xrotation Yrotation Zrotation
	JOINT spine
	{
		OFFSET 0.000000 -0.458068 7.965683
		CHANNELS 3 Xrotation Yrotation Zrotation
		JOINT spine1
		{
			OFFSET 0.000000 -0.000002 10.243103
			CHANNELS 3 Xrotation Yrotation Zrotation
			JOINT spine2
			{
				OFFSET 0.000000 -0.000001 9.814751
				CHANNELS 3 Xrotation Yrotation Zrotation
				JOINT Neck
				{
					OFFSET 0.000000 -1.201384 25.198608
					CHANNELS 3 Xrotation Yrotation Zrotation
					JOINT Head
					{
						OFFSET 0.000000 -0.000001 7.613144
						CHANNELS 3 Xrotation Yrotation Zrotation
						End Site
						{
							OFFSET 0.000000 6.077327 18.428101
						}
					}
				}
				JOINT RightShoulder
				{
					OFFSET -4.132698 0.575449 10.599197
					CHANNELS 3 Xrotation Yrotation Zrotation
					JOINT RightArm
					{
						OFFSET 0.000000 -0.000002 13.901794
						CHANNELS 3 Xrotation Yrotation Zrotation
						JOINT RightArmRoll
						{
							OFFSET 0.000000 -0.000001 7.017883
							CHANNELS 3 Xrotation Yrotation Zrotation
							JOINT RightForeArm
							{
								OFFSET 0.000000 -0.000003 20.440598
								CHANNELS 3 Xrotation Yrotation Zrotation
								JOINT RightForeArmRoll
								{
									OFFSET 0.000000 -0.000001 7.875153
									CHANNELS 3 Xrotation Yrotation Zrotation
									JOINT RightHand
									{
										OFFSET 0.000000 -0.000003 15.803696
										CHANNELS 3 Xrotation Yrotation Zrotation
										End Site
										{
											OFFSET 0.000000 0.000000 0.100006
										}
									}
								}
							}
						}
					}
				}
				JOINT LeftShoulder
				{
					OFFSET 4.132698 0.575449 10.599197
					CHANNELS 3 Xrotation Yrotation Zrotation
					JOINT LeftArm
					{
						OFFSET 0.000000 -0.000002 13.901794
						CHANNELS 3 Xrotation Yrotation Zrotation
						JOINT LeftArmRoll
						{
							OFFSET 0.000000 -0.000001 7.017883
							CHANNELS 3 Xrotation Yrotation Zrotation
							JOINT LeftForeArm
							{
								OFFSET 0.000000 -0.000003 20.440598
								CHANNELS 3 Xrotation Yrotation Zrotation
								JOINT LeftForeArmRoll
								{
									OFFSET 0.000000 -0.000001 7.875153
									CHANNELS 3 Xrotation Yrotation Zrotation
									JOINT LeftHand
									{
										OFFSET 0.000000 -0.000003 15.803696
										CHANNELS 3 Xrotation Yrotation Zrotation
										End Site
										{
											OFFSET 0.000000 0.000000 0.100006
										}
									}
								}
							}
						}
					}
				}
			}
		}
	}
	JOINT RightUpLeg
	{
		OFFSET -7.060478 1.086100 -1.294701
		CHANNELS 3 Xrotation Yrotation Zrotation
		JOINT RightUpLegRoll
		{
			OFFSET 0.000000 -0.000003 18.530800
			CHANNELS 3 Xrotation Yrotation Zrotation
			JOINT RightLeg
			{
				OFFSET 0.000000 0.000004 -22.947601
				CHANNELS 3 Xrotation Yrotation Zrotation
				JOINT RightLegRoll
				{
					OFFSET 0.000000 -0.000004 23.022598
					CHANNELS 3 Xrotation Yrotation Zrotation
					JOINT RightFoot
					{
						OFFSET 0.000000 -0.000003 19.162498
						CHANNELS 3 Xrotation Yrotation Zrotation
						JOINT RightToeBase
						{
							OFFSET 0.000000 -0.000003 16.018799
							CHANNELS 3 Xrotation Yrotation Zrotation
							End Site
							{
								OFFSET 0.006790 0.894205 7.757828
							}
						}
					}
				}
			}
		}
	}
	JOINT LeftUpLeg
	{
		OFFSET 7.060478 1.086100 -1.294701
		CHANNELS 3 Xrotation Yrotation Zrotation
		JOINT LeftUpLegRoll
		{
			OFFSET 0.000000 -0.000003 18.530899
			CHANNELS 3 Xrotation Yrotation Zrotation
			JOINT LeftLeg
			{
				OFFSET 0.000000 -0.000004 22.947495
				CHANNELS 3 Xrotation Yrotation Zrotation
				JOINT LeftLegRoll
				{
					OFFSET 0.000000 -0.000004 23.235504
					CHANNELS 3 Xrotation Yrotation Zrotation
					JOINT LeftFoot
					{
						OFFSET 0.000000 -0.000003 18.949600
						CHANNELS 3 Xrotation Yrotation Zrotation
						JOINT LeftToeBase
						{
							OFFSET 0.000000 -0.000003 16.018799
							CHANNELS 3 Xrotation Yrotation Zrotation
							End Site
							{
								OFFSET -0.030426 0.894205 7.757828
							}
						}
					}
				}
			}
		}
	}
}
MOTION
Frames: 4
Frame Time: 0.041667
63.957199 4.147086 96.554604 -4.476690 -0.017423 4.655746 -0.422060 -0.334092 -0.312783 3.157020 -0.643482 -0.624493 4.802100 -0.650890 -0.616620 5.991662 11.558729 0.349572 13.326761 -9.342501 1.196282 -11.431038 -70.263215 -14.030476 107.800773 -69.069892 89.059431 -0.000003 -0.000021 0.000006 46.211038 -17.684497 6.069204 -0.000005 0.000003 -2.999991 -4.999937 -7.998958 0.000011 -8.106526 64.062182 9.928704 -41.891446 116.774665 54.657493 0.000000 -0.000001 0.000000 42.014297 14.170317 -3.518676 -0.000004 -0.000004 3.012601 -4.999599 7.998732 0.000007 1.411224 -178.955314 1.832724 -179.999991 0.000005 -1.146005 173.005864 -1.205965 -0.591936 -0.000005 0.000001 -0.009975 67.218767 6.909573 2.199858 25.456921 -7.351916 -0.000003 -0.092701 176.872011 -0.361139 -0.000019 -0.000004 -1.126720 -10.776088 1.801061 0.463729 -0.000005 -0.000005 -0.210906 70.564713 -6.853701 -2.112359 25.456959 7.342581 -0.000000 
63.960796 4.145222 96.552292 -4.448802 -0.021588 4.664901 -0.418989 -0.334748 -0.312783 3.163152 -0.646385 -0.624428 4.808233 -0.653795 -0.616529 5.969716 11.555600 0.354486 13.277766 -9.344748 1.195733 -11.443321 -70.252075 -14.043635 107.894859 -69.179025 89.212236 -0.000003 -0.000020 0.000004 46.128786 -17.696733 6.066866 -0.000002 0.000006 -2.999992 -4.999937 -7.998952 0.000015 -8.108365 64.086627 9.932500 -41.876641 116.741238 54.449985 0.000000 0.000000 -0.000001 41.710558 14.144712 -3.485470 -0.000003 -0.000005 3.012601 -4.999610 7.998734 0.000007 1.382128 -178.962294 1.809486 -179.999991 0.000005 -1.146005 173.000755 -1.181139 -0.591006 -0.000006 0.000001 -0.011282 67.200531 6.909560 2.199802 25.456921 -7.351916 -0.000003 -0.143185 176.886996 -0.342727 -0.000019 -0.000005 -1.126720 -10.814157 1.792857 0.464914 -0.000005 -0.000005 -0.210841 70.554194 -6.853709 -2.112308 25.456955 7.342581 -0.000001 
63.967903 4.141017 96.554489 -4.421070 -0.025670 4.674346 -0.415925 -0.335381 -0.312783 3.169274 -0.649291 -0.624312 4.814356 -0.656702 -0.616387 5.947627 11.551872 0.359347 13.228538 -9.346401 1.195047 -11.455961 -70.240894 -14.057187 107.989006 -69.289797 89.362896 -0.000004 -0.000022 0.000004 46.048971 -17.709308 6.065199 -0.000001 0.000007 -2.999988 -4.999933 -7.998958 0.000010 -8.109588 64.111011 9.935578 -41.857015 116.707292 54.239359 0.000000 0.000001 -0.000001 41.410839 14.120290 -3.453846 -0.000005 -0.000004 3.012601 -4.999602 7.998731 0.000006 1.355119 -178.970286 1.786537 -179.999991 0.000005 -1.146005 172.999211 -1.157313 -0.591104 -0.000006 0.000001 -0.012670 67.181153 6.909567 2.199820 25.456921 -7.351917 -0.000002 -0.193004 176.902009 -0.324671 -0.000019 -0.000004 -1.126720 -10.851330 1.784865 0.466056 -0.000005 -0.000005 -0.210746 70.543464 -6.853747 -2.112276 25.456957 7.342581 -0.000002 
63.963699 4.144626 96.549004 -4.393473 -0.029691 4.683989 -0.412862 -0.335997 -0.312781 3.175386 -0.652200 -0.624160 4.820470 -0.659611 -0.616211 5.925445 11.547651 0.364185 13.178995 -9.347629 1.194233 -11.468775 -70.229617 -14.070940 108.084233 -69.401784 89.513099 -0.000003 -0.000021 0.000006 45.970684 -17.722201 6.063752 -0.000004 0.000004 -2.999992 -4.999938 -7.998952 0.000011 -8.110315 64.135114 9.938087 -41.834584 116.672349 54.027117 0.000001 -0.000000 -0.000000 41.113975 14.096652 -3.423357 0.000000 -0.000004 3.012599 -4.999604 7.998733 0.000004 1.329593 -178.977280 1.763846 -179.999991 0.000005 -1.146005 173.000113 -1.132503 -0.590049 -0.000005 0.000001 -0.014115 67.161141 6.909579 2.199781 25.456919 -7.351916 -0.000002 -0.242355 176.916024 -0.306867 -0.000020 -0.000004 -1.126720 -10.887803 1.777017 0.467162 -0.000005 -0.000005 -0.210629 70.532720 -6.853748 -2.112238 25.456959 7.342581 -0.000001 
